<mxfile host="Electron" modified="2023-12-28T18:56:44.512Z" agent="Mozilla/5.0 (X11; Linux x86_64) AppleWebKit/537.36 (KHTML, like Gecko) draw.io/22.1.11 Chrome/114.0.5735.289 Electron/25.9.8 Safari/537.36" etag="PAfyqL7siwFDJjkSa5Kr" version="22.1.11" type="device">
  <diagram name="Page-1" id="5aQ9XVYzR1BFyyLYJIMl">
    <mxGraphModel dx="1562" dy="653" grid="1" gridSize="10" guides="1" tooltips="1" connect="1" arrows="1" fold="1" page="1" pageScale="1" pageWidth="850" pageHeight="1100" math="0" shadow="0">
      <root>
        <mxCell id="0" />
        <mxCell id="1" parent="0" />
        <mxCell id="VSnkwxyRjT1LF5qgz-RB-5" value="" style="endArrow=none;dashed=1;html=1;rounded=0;" edge="1" parent="1">
          <mxGeometry width="50" height="50" relative="1" as="geometry">
            <mxPoint x="40" y="237.99999999999997" as="sourcePoint" />
            <mxPoint x="80" y="237.99999999999997" as="targetPoint" />
          </mxGeometry>
        </mxCell>
        <mxCell id="VSnkwxyRjT1LF5qgz-RB-6" value="" style="endArrow=none;html=1;rounded=0;" edge="1" parent="1">
          <mxGeometry width="50" height="50" relative="1" as="geometry">
            <mxPoint x="40" y="480" as="sourcePoint" />
            <mxPoint x="40" y="240" as="targetPoint" />
          </mxGeometry>
        </mxCell>
        <mxCell id="VSnkwxyRjT1LF5qgz-RB-7" value="" style="endArrow=none;html=1;rounded=0;entryX=1;entryY=1;entryDx=0;entryDy=0;" edge="1" parent="1" target="VSnkwxyRjT1LF5qgz-RB-26">
          <mxGeometry width="50" height="50" relative="1" as="geometry">
            <mxPoint x="40" y="479.47" as="sourcePoint" />
            <mxPoint x="240" y="479.47" as="targetPoint" />
          </mxGeometry>
        </mxCell>
        <mxCell id="VSnkwxyRjT1LF5qgz-RB-9" value="T1" style="text;html=1;align=center;verticalAlign=middle;resizable=0;points=[];autosize=1;strokeColor=none;fillColor=none;" vertex="1" parent="1">
          <mxGeometry x="40" y="480" width="40" height="30" as="geometry" />
        </mxCell>
        <mxCell id="VSnkwxyRjT1LF5qgz-RB-10" value="T2" style="text;html=1;align=center;verticalAlign=middle;resizable=0;points=[];autosize=1;strokeColor=none;fillColor=none;" vertex="1" parent="1">
          <mxGeometry x="80" y="480" width="40" height="30" as="geometry" />
        </mxCell>
        <mxCell id="VSnkwxyRjT1LF5qgz-RB-11" value="T3" style="text;html=1;align=center;verticalAlign=middle;resizable=0;points=[];autosize=1;strokeColor=none;fillColor=none;" vertex="1" parent="1">
          <mxGeometry x="120" y="480" width="40" height="30" as="geometry" />
        </mxCell>
        <mxCell id="VSnkwxyRjT1LF5qgz-RB-12" value="T4&lt;br&gt;" style="text;html=1;align=center;verticalAlign=middle;resizable=0;points=[];autosize=1;strokeColor=none;fillColor=none;" vertex="1" parent="1">
          <mxGeometry x="160" y="480" width="40" height="30" as="geometry" />
        </mxCell>
        <mxCell id="VSnkwxyRjT1LF5qgz-RB-14" value="" style="endArrow=none;dashed=1;html=1;rounded=0;" edge="1" parent="1">
          <mxGeometry width="50" height="50" relative="1" as="geometry">
            <mxPoint x="80" y="319.74" as="sourcePoint" />
            <mxPoint x="120" y="319.74" as="targetPoint" />
          </mxGeometry>
        </mxCell>
        <mxCell id="VSnkwxyRjT1LF5qgz-RB-15" value="" style="endArrow=none;dashed=1;html=1;rounded=0;" edge="1" parent="1">
          <mxGeometry width="50" height="50" relative="1" as="geometry">
            <mxPoint x="120" y="400" as="sourcePoint" />
            <mxPoint x="160" y="400" as="targetPoint" />
          </mxGeometry>
        </mxCell>
        <mxCell id="VSnkwxyRjT1LF5qgz-RB-17" value="" style="rounded=0;whiteSpace=wrap;html=1;fillColor=#ffe6cc;strokeColor=#d79b00;" vertex="1" parent="1">
          <mxGeometry x="240" y="265" width="40" height="20" as="geometry" />
        </mxCell>
        <mxCell id="VSnkwxyRjT1LF5qgz-RB-20" value="" style="endArrow=none;dashed=1;html=1;rounded=0;" edge="1" parent="1">
          <mxGeometry width="50" height="50" relative="1" as="geometry">
            <mxPoint x="160" y="440" as="sourcePoint" />
            <mxPoint x="200" y="440" as="targetPoint" />
          </mxGeometry>
        </mxCell>
        <mxCell id="VSnkwxyRjT1LF5qgz-RB-21" value="Response Time" style="text;html=1;align=center;verticalAlign=middle;resizable=0;points=[];autosize=1;strokeColor=none;fillColor=none;" vertex="1" parent="1">
          <mxGeometry x="285" y="260" width="110" height="30" as="geometry" />
        </mxCell>
        <mxCell id="VSnkwxyRjT1LF5qgz-RB-22" value="T4" style="rounded=0;whiteSpace=wrap;html=1;fillColor=#f8cecc;strokeColor=#b85450;" vertex="1" parent="1">
          <mxGeometry x="80" y="420" width="40" height="20" as="geometry" />
        </mxCell>
        <mxCell id="VSnkwxyRjT1LF5qgz-RB-23" value="Interference" style="text;html=1;align=center;verticalAlign=middle;resizable=0;points=[];autosize=1;strokeColor=none;fillColor=none;" vertex="1" parent="1">
          <mxGeometry x="285" y="300" width="90" height="30" as="geometry" />
        </mxCell>
        <mxCell id="VSnkwxyRjT1LF5qgz-RB-24" value="" style="rounded=0;whiteSpace=wrap;html=1;fillColor=#dae8fc;strokeColor=#6c8ebf;" vertex="1" parent="1">
          <mxGeometry x="240" y="345" width="40" height="20" as="geometry" />
        </mxCell>
        <mxCell id="VSnkwxyRjT1LF5qgz-RB-25" value="Blocking" style="text;html=1;align=center;verticalAlign=middle;resizable=0;points=[];autosize=1;strokeColor=none;fillColor=none;" vertex="1" parent="1">
          <mxGeometry x="285" y="340" width="70" height="30" as="geometry" />
        </mxCell>
        <mxCell id="VSnkwxyRjT1LF5qgz-RB-26" value="" style="rounded=0;whiteSpace=wrap;html=1;fillColor=#d5e8d4;strokeColor=#82b366;" vertex="1" parent="1">
          <mxGeometry x="160" y="460" width="40" height="20" as="geometry" />
        </mxCell>
        <mxCell id="VSnkwxyRjT1LF5qgz-RB-27" value="WCET" style="text;html=1;align=center;verticalAlign=middle;resizable=0;points=[];autosize=1;strokeColor=none;fillColor=none;" vertex="1" parent="1">
          <mxGeometry x="285" y="380" width="60" height="30" as="geometry" />
        </mxCell>
        <mxCell id="VSnkwxyRjT1LF5qgz-RB-29" value="" style="rounded=0;whiteSpace=wrap;html=1;fillColor=#d5e8d4;strokeColor=#82b366;" vertex="1" parent="1">
          <mxGeometry x="120" y="450" width="40" height="30" as="geometry" />
        </mxCell>
        <mxCell id="VSnkwxyRjT1LF5qgz-RB-31" value="R1" style="rounded=0;whiteSpace=wrap;html=1;fillColor=#dae8fc;strokeColor=#6c8ebf;" vertex="1" parent="1">
          <mxGeometry x="80" y="440" width="40" height="20" as="geometry" />
        </mxCell>
        <mxCell id="VSnkwxyRjT1LF5qgz-RB-32" value="R2" style="rounded=0;whiteSpace=wrap;html=1;fillColor=#dae8fc;strokeColor=#6c8ebf;" vertex="1" parent="1">
          <mxGeometry x="160" y="450" width="40" height="10" as="geometry" />
        </mxCell>
        <mxCell id="VSnkwxyRjT1LF5qgz-RB-33" value="" style="rounded=0;whiteSpace=wrap;html=1;fillColor=#d5e8d4;strokeColor=#82b366;" vertex="1" parent="1">
          <mxGeometry x="240" y="385" width="40" height="20" as="geometry" />
        </mxCell>
        <mxCell id="VSnkwxyRjT1LF5qgz-RB-34" value="" style="rounded=0;whiteSpace=wrap;html=1;fillColor=#d5e8d4;strokeColor=#82b366;" vertex="1" parent="1">
          <mxGeometry x="40" y="390" width="40" height="90" as="geometry" />
        </mxCell>
        <mxCell id="VSnkwxyRjT1LF5qgz-RB-35" value="" style="rounded=0;whiteSpace=wrap;html=1;fillColor=#d5e8d4;strokeColor=#82b366;" vertex="1" parent="1">
          <mxGeometry x="80" y="460" width="40" height="20" as="geometry" />
        </mxCell>
        <mxCell id="VSnkwxyRjT1LF5qgz-RB-37" value="T4" style="rounded=0;whiteSpace=wrap;html=1;fillColor=#f8cecc;strokeColor=#b85450;" vertex="1" parent="1">
          <mxGeometry x="120" y="430" width="40" height="20" as="geometry" />
        </mxCell>
        <mxCell id="VSnkwxyRjT1LF5qgz-RB-38" value="T4" style="rounded=0;whiteSpace=wrap;html=1;fillColor=#f8cecc;strokeColor=#b85450;" vertex="1" parent="1">
          <mxGeometry x="80" y="400" width="40" height="20" as="geometry" />
        </mxCell>
        <mxCell id="VSnkwxyRjT1LF5qgz-RB-39" value="T3" style="rounded=0;whiteSpace=wrap;html=1;fillColor=#f8cecc;strokeColor=#b85450;" vertex="1" parent="1">
          <mxGeometry x="80" y="370" width="40" height="30" as="geometry" />
        </mxCell>
        <mxCell id="VSnkwxyRjT1LF5qgz-RB-40" value="T4" style="rounded=0;whiteSpace=wrap;html=1;fillColor=#f8cecc;strokeColor=#b85450;" vertex="1" parent="1">
          <mxGeometry x="40" y="370" width="40" height="20" as="geometry" />
        </mxCell>
        <mxCell id="VSnkwxyRjT1LF5qgz-RB-41" value="T3" style="rounded=0;whiteSpace=wrap;html=1;fillColor=#f8cecc;strokeColor=#b85450;" vertex="1" parent="1">
          <mxGeometry x="40" y="300" width="40" height="30" as="geometry" />
        </mxCell>
        <mxCell id="VSnkwxyRjT1LF5qgz-RB-42" value="T4" style="rounded=0;whiteSpace=wrap;html=1;fillColor=#f8cecc;strokeColor=#b85450;" vertex="1" parent="1">
          <mxGeometry x="40" y="350" width="40" height="20" as="geometry" />
        </mxCell>
        <mxCell id="VSnkwxyRjT1LF5qgz-RB-43" value="T4" style="rounded=0;whiteSpace=wrap;html=1;fillColor=#f8cecc;strokeColor=#b85450;" vertex="1" parent="1">
          <mxGeometry x="40" y="330" width="40" height="20" as="geometry" />
        </mxCell>
        <mxCell id="VSnkwxyRjT1LF5qgz-RB-44" value="T3" style="rounded=0;whiteSpace=wrap;html=1;fillColor=#f8cecc;strokeColor=#b85450;" vertex="1" parent="1">
          <mxGeometry x="40" y="270" width="40" height="30" as="geometry" />
        </mxCell>
        <mxCell id="VSnkwxyRjT1LF5qgz-RB-45" value="" style="rounded=0;whiteSpace=wrap;html=1;fillColor=#f8cecc;strokeColor=#b85450;" vertex="1" parent="1">
          <mxGeometry x="240" y="305" width="40" height="20" as="geometry" />
        </mxCell>
        <mxCell id="VSnkwxyRjT1LF5qgz-RB-47" value="Time" style="text;html=1;align=center;verticalAlign=middle;resizable=0;points=[];autosize=1;strokeColor=none;fillColor=none;" vertex="1" parent="1">
          <mxGeometry x="15" y="208" width="50" height="30" as="geometry" />
        </mxCell>
        <mxCell id="VSnkwxyRjT1LF5qgz-RB-48" value="500" style="text;html=1;align=center;verticalAlign=middle;resizable=0;points=[];autosize=1;strokeColor=none;fillColor=none;" vertex="1" parent="1">
          <mxGeometry x="-5" y="265" width="40" height="30" as="geometry" />
        </mxCell>
        <mxCell id="VSnkwxyRjT1LF5qgz-RB-50" value="100" style="text;html=1;align=center;verticalAlign=middle;resizable=0;points=[];autosize=1;strokeColor=none;fillColor=none;" vertex="1" parent="1">
          <mxGeometry x="-5" y="425" width="40" height="30" as="geometry" />
        </mxCell>
        <mxCell id="VSnkwxyRjT1LF5qgz-RB-51" value="200" style="text;html=1;align=center;verticalAlign=middle;resizable=0;points=[];autosize=1;strokeColor=none;fillColor=none;" vertex="1" parent="1">
          <mxGeometry x="-5" y="385" width="40" height="30" as="geometry" />
        </mxCell>
        <mxCell id="VSnkwxyRjT1LF5qgz-RB-53" value="200" style="text;html=1;align=center;verticalAlign=middle;resizable=0;points=[];autosize=1;strokeColor=none;fillColor=none;" vertex="1" parent="1">
          <mxGeometry x="-5" y="385" width="40" height="30" as="geometry" />
        </mxCell>
        <mxCell id="VSnkwxyRjT1LF5qgz-RB-54" value="300" style="text;html=1;align=center;verticalAlign=middle;resizable=0;points=[];autosize=1;strokeColor=none;fillColor=none;" vertex="1" parent="1">
          <mxGeometry x="-5" y="345" width="40" height="30" as="geometry" />
        </mxCell>
        <mxCell id="VSnkwxyRjT1LF5qgz-RB-55" value="400" style="text;html=1;align=center;verticalAlign=middle;resizable=0;points=[];autosize=1;strokeColor=none;fillColor=none;" vertex="1" parent="1">
          <mxGeometry x="-5" y="305" width="40" height="30" as="geometry" />
        </mxCell>
        <mxCell id="VSnkwxyRjT1LF5qgz-RB-56" value="0" style="text;html=1;align=center;verticalAlign=middle;resizable=0;points=[];autosize=1;strokeColor=none;fillColor=none;" vertex="1" parent="1">
          <mxGeometry y="460" width="30" height="30" as="geometry" />
        </mxCell>
      </root>
    </mxGraphModel>
  </diagram>
</mxfile>
